<?xml version="1.0" standalone="no"?>
<!DOCTYPE svg PUBLIC "-//W3C//DTD SVG 20010904//EN"
 "http://www.w3.org/TR/2001/REC-SVG-20010904/DTD/svg10.dtd">
<svg version="1.0" xmlns="http://www.w3.org/2000/svg"
 width="920.000000pt" height="939.000000pt" viewBox="0 0 920.000000 939.000000"
 preserveAspectRatio="xMidYMid meet">

<g transform="translate(0.000000,939.000000) scale(0.100000,-0.100000)"
fill="#000000" stroke="none">
<path d="M4320 8964 c-30 -3 -129 -14 -220 -25 -871 -108 -1687 -509 -2314
-1135 -549 -549 -928 -1251 -1085 -2006 -61 -295 -75 -449 -75 -813 0 -287 3
-352 22 -500 95 -710 356 -1347 781 -1910 205 -271 495 -561 767 -767 587
-443 1256 -708 1999 -790 183 -20 683 -17 865 5 463 57 867 174 1269 368 189
91 294 151 481 275 226 149 401 294 611 503 336 336 578 676 778 1092 194 402
311 806 368 1269 22 182 25 682 5 865 -87 786 -377 1486 -871 2103 -104 130
-353 386 -486 501 -512 442 -1119 745 -1779 885 -276 59 -453 78 -776 81 -157
1 -310 1 -340 -1z m527 -378 c1 -1 -59 -72 -133 -159 -133 -156 -135 -157
-175 -157 -47 0 -47 -3 19 79 37 45 35 49 -37 53 l-44 3 28 33 c27 32 30 33
90 30 57 -2 65 0 83 22 11 14 18 28 15 32 -2 5 -56 8 -119 8 -63 0 -114 3
-114 7 0 4 12 20 27 35 l27 29 166 -7 c91 -4 166 -7 167 -8z m187 -80 c14 -44
31 -102 38 -128 6 -27 15 -48 19 -48 4 0 43 48 85 106 l78 106 41 -7 c22 -3
59 -9 83 -12 34 -5 42 -10 42 -27 0 -28 -11 -43 -35 -47 -17 -4 -23 -21 -40
-124 -20 -117 -21 -120 -48 -123 -18 -2 -29 2 -33 13 -4 8 3 66 14 128 11 61
18 114 16 116 -8 8 -41 -31 -112 -129 -66 -91 -70 -95 -103 -92 -19 2 -36 6
-38 8 -7 6 -98 339 -95 345 2 3 17 4 33 1 28 -4 32 -10 55 -86z m-995 -103
c61 -76 111 -141 111 -144 0 -4 -12 -10 -26 -13 -32 -8 -42 0 -139 118 -38 47
-73 85 -77 85 -3 1 -26 -59 -50 -131 l-45 -133 -42 -8 c-51 -10 -65 0 -103 71
-35 64 -41 102 -28 164 14 68 19 76 57 84 l31 6 -15 -53 c-9 -33 -12 -73 -8
-103 6 -52 29 -106 45 -106 5 0 30 65 56 145 50 148 50 149 105 154 10 0 61
-54 128 -136z m-548 -40 c120 -124 128 -137 119 -178 -5 -20 -10 -38 -12 -39
-1 -2 -79 -31 -172 -65 l-169 -61 -34 21 -35 22 7 131 c3 72 8 138 11 146 3
12 174 85 209 89 6 0 40 -29 76 -66z m2548 -29 c5 -5 -44 -161 -81 -262 -19
-50 -22 -53 -47 -47 -44 11 -63 28 -140 129 -71 94 -73 97 -56 116 10 11 23
20 29 20 7 0 43 -40 81 -90 38 -49 70 -90 71 -90 1 0 21 54 44 121 42 118 44
120 69 114 14 -4 28 -9 30 -11z m-2993 -61 c-3 -10 -26 -103 -52 -206 -47
-187 -47 -189 -80 -205 -19 -8 -36 -14 -38 -11 -2 2 12 71 31 152 19 81 33
150 31 153 -3 2 -51 -16 -107 -42 -57 -25 -105 -43 -108 -40 -3 3 -3 20 1 39
6 32 13 36 159 104 83 39 156 72 160 72 5 1 6 -7 3 -16z m3119 1 c20 -13 23
-20 15 -34 -19 -35 -10 -45 79 -93 80 -43 94 -47 156 -47 57 0 76 -5 121 -31
30 -17 54 -33 54 -36 0 -3 -62 -3 -138 0 l-139 6 -109 61 c-60 34 -113 66
-119 71 -6 6 0 28 20 64 16 30 31 55 33 55 1 0 14 -7 27 -16z m-1295 -154
c618 -53 1207 -286 1692 -671 202 -161 451 -422 601 -632 248 -346 433 -765
521 -1183 75 -356 86 -756 30 -1129 -82 -555 -333 -1107 -702 -1545 -103 -123
-321 -335 -442 -432 -433 -344 -955 -573 -1485 -652 -373 -56 -773 -45 -1129
30 -498 105 -966 332 -1363 661 -124 103 -345 328 -447 455 -330 413 -563 936
-645 1449 -86 535 -36 1081 144 1586 101 281 308 650 501 893 87 110 384 407
494 494 243 193 612 400 893 501 241 86 530 150 777 173 133 13 423 14 560 2z
m1300 -73 l115 -62 73 -110 c39 -60 72 -113 72 -117 0 -20 -97 51 -124 91 -45
66 -75 91 -161 136 l-77 40 -18 -23 c-21 -25 -28 -27 -53 -7 -18 13 -18 16 10
64 15 28 33 51 38 51 6 0 62 -28 125 -63z m-3567 -197 c-15 -200 -16 -206 -42
-227 -14 -12 -30 -22 -35 -23 -4 0 -6 34 -4 75 2 41 2 75 0 75 -2 0 -23 -14
-48 -30 l-44 -31 0 43 c0 40 3 45 45 72 51 32 68 56 63 92 -3 24 -5 23 -97
-41 -52 -36 -99 -65 -104 -65 -4 0 -7 17 -5 37 3 36 9 42 142 136 76 53 140
96 142 94 1 -1 -4 -95 -13 -207z m-440 -219 l-38 -131 -97 -96 -96 -97 -46 39
c-48 40 -54 52 -34 72 17 17 38 15 60 -5 17 -15 22 -13 88 58 60 64 72 84 91
144 15 52 31 81 62 112 22 24 43 41 45 39 2 -3 -13 -63 -35 -135z m4925 60
c38 -36 40 -50 8 -80 l-25 -23 -31 22 -32 22 -84 -33 c-46 -19 -84 -37 -84
-41 0 -3 28 -30 63 -58 34 -29 63 -56 65 -59 3 -8 -42 -31 -59 -31 -12 0 -211
161 -205 167 9 9 323 142 336 142 9 1 30 -12 48 -28z m152 -132 c14 -25 10
-30 -92 -115 -43 -36 -78 -70 -78 -75 0 -10 188 -239 196 -239 2 0 35 27 74
61 l70 60 -32 40 c-28 34 -36 39 -74 39 -34 0 -49 6 -69 28 l-25 27 27 6 c16
4 53 7 83 8 l55 0 63 -74 c35 -42 62 -80 60 -85 -5 -15 -230 -200 -243 -200
-6 0 -74 75 -150 166 l-138 166 24 24 c50 49 214 183 226 184 7 0 17 -9 23
-21z m-4845 -59 c-28 -28 -57 -46 -104 -61 -58 -19 -76 -31 -144 -101 l-79
-80 21 -21 c20 -22 20 -22 1 -47 l-19 -25 -48 48 -48 47 103 103 102 102 108
37 c144 49 157 49 107 -2z m-402 -324 c20 -16 37 -35 37 -42 0 -15 -250 -336
-266 -341 -11 -4 -236 166 -250 188 -3 6 3 20 14 31 l20 21 89 -68 c48 -38 93
-72 100 -77 8 -7 41 28 107 111 53 66 96 123 96 125 0 3 -32 31 -72 62 l-71
58 -34 -39 c-31 -36 -33 -43 -28 -90 4 -41 2 -54 -15 -74 -11 -13 -22 -22 -23
-20 -7 9 -37 130 -37 146 0 10 28 53 61 96 l61 77 86 -67 c48 -37 104 -80 125
-97z m5536 -134 c-29 -54 -58 -107 -66 -119 -8 -11 -10 -23 -6 -26 4 -2 62 4
128 14 66 10 125 18 130 19 8 0 66 -75 97 -126 5 -7 -2 -18 -18 -29 -23 -15
-28 -15 -42 -2 -15 13 -28 7 -122 -60 l-105 -74 -17 22 c-10 11 -18 25 -18 30
0 4 43 38 95 74 142 99 140 103 -45 70 l-135 -23 -23 26 c-12 15 -21 32 -20
38 2 6 41 79 88 163 l85 152 23 -26 23 -27 -52 -96z m-5859 -247 c50 -25 90
-50 90 -56 0 -6 -5 -19 -10 -29 -9 -18 -15 -16 -103 25 -51 24 -93 51 -95 60
-3 14 14 45 24 45 3 0 45 -20 94 -45z m-90 -75 c37 -19 39 -22 28 -45 -13 -29
-25 -31 -73 -8 -38 18 -41 24 -25 54 13 24 21 24 70 -1z m-10 -125 c0 -6 -6
-19 -13 -29 -12 -16 -19 -14 -110 28 l-98 45 16 30 15 31 95 -47 c52 -26 95
-52 95 -58z m6374 -85 c36 -81 66 -153 66 -159 0 -7 -8 -10 -17 -7 -20 6 -285
78 -349 95 -32 9 -45 18 -54 41 -7 17 -10 33 -6 37 3 3 71 -11 151 -32 80 -20
148 -35 151 -33 2 3 -16 51 -41 108 -25 57 -45 106 -45 110 0 5 18 3 39 -2 39
-10 40 -11 105 -158z m-6459 18 c72 -27 134 -53 138 -57 4 -5 1 -26 -8 -49
-16 -38 -23 -43 -128 -90 -180 -79 -297 -125 -303 -120 -3 3 1 21 9 39 12 28
28 40 93 69 206 90 248 112 233 120 -8 5 -59 25 -114 46 -55 20 -102 38 -104
40 -2 2 2 17 9 34 9 22 17 29 29 25 9 -4 75 -29 146 -57z m37 -245 c10 -9 18
-20 18 -25 0 -11 -160 -198 -169 -198 -18 1 -43 31 -37 45 6 16 157 194 165
195 3 0 13 -7 23 -17z m6378 -107 c10 -31 8 -41 -25 -106 -20 -40 -35 -74 -33
-75 2 -2 61 14 131 37 70 22 130 38 132 36 3 -2 7 -18 11 -34 l6 -30 -126 -39
c-69 -21 -126 -42 -126 -46 0 -5 24 -22 53 -38 78 -44 94 -58 101 -87 4 -14 5
-28 3 -30 -1 -2 -23 7 -47 19 -25 12 -68 32 -96 45 -52 22 -52 22 -83 107
l-30 85 51 95 c28 52 55 95 59 95 4 0 13 -15 19 -34z m-6724 -144 c7 -4 13
-16 15 -27 4 -17 20 -22 127 -39 l122 -18 0 -34 c0 -40 8 -39 -140 -15 -63 11
-117 18 -119 15 -8 -8 25 -36 125 -104 89 -61 104 -75 104 -98 0 -15 -4 -33
-8 -40 -8 -12 -341 -117 -348 -109 -2 2 -1 18 2 35 6 30 11 33 103 61 53 17
108 33 124 37 15 3 29 9 32 13 2 4 -46 43 -106 86 -106 75 -110 80 -105 109 3
17 8 55 12 84 6 44 10 52 28 52 11 0 26 -4 32 -8z m7004 -262 c-1 -20 -22 -42
-100 -104 -55 -44 -97 -83 -94 -87 2 -4 57 -20 122 -35 64 -15 122 -32 128
-38 14 -13 47 -144 39 -155 -2 -5 -17 -11 -31 -14 -20 -3 -28 0 -31 14 -7 24
2 24 -133 -6 -62 -14 -119 -24 -125 -21 -7 2 -15 16 -17 30 -4 21 -1 27 16 32
11 3 66 15 120 28 55 12 101 27 103 33 4 10 -66 30 -224 63 -47 10 -54 15 -61
43 -5 18 -7 36 -5 40 3 4 66 57 141 117 139 111 152 117 152 60z m-7100 -785
l0 -75 -75 0 -75 0 0 75 0 75 75 0 75 0 0 -75z m7190 0 l0 -75 -75 0 -75 0 0
75 0 75 75 0 75 0 0 -75z m-6703 -1206 c68 -173 123 -320 123 -326 0 -16 -71
-46 -81 -36 -4 5 -62 148 -129 318 -67 171 -124 315 -126 321 -5 12 63 45 81
40 5 -1 64 -144 132 -317z m6348 61 l158 -242 -17 -54 c-9 -30 -18 -54 -20
-54 -1 0 -58 83 -127 185 -68 102 -127 185 -130 185 -7 0 -109 -283 -109 -301
0 -21 -21 -6 -49 35 l-30 44 75 226 c42 124 79 224 83 222 4 -3 79 -114 166
-246z m-6689 -185 c68 -171 123 -317 123 -325 1 -18 -67 -46 -79 -34 -5 5 -65
152 -133 327 l-125 319 31 14 c18 7 39 12 47 11 9 -1 60 -117 136 -312z m174
55 c44 -112 80 -207 80 -211 0 -10 -74 -38 -82 -31 -10 10 -171 423 -166 427
12 13 74 32 81 26 4 -4 43 -99 87 -211z m6195 -317 l-7 -188 -95 -165 c-53
-91 -98 -167 -100 -169 -2 -3 -28 7 -58 22 -30 15 -55 25 -55 23 0 -3 61 -55
135 -116 74 -61 135 -117 135 -123 -1 -7 -16 -29 -34 -50 -32 -35 -46 -42
-202 -87 -93 -27 -174 -50 -181 -50 -12 0 -40 76 -31 85 2 3 71 25 152 49 81
25 151 47 154 50 3 4 -2 12 -10 19 -9 6 -71 57 -137 111 l-121 100 24 30 c15
19 32 30 44 29 14 -2 28 9 42 32 22 36 32 37 78 7 12 -8 24 -13 26 -11 2 2 35
58 74 124 l70 120 6 101 c6 95 8 105 47 173 23 39 44 71 46 71 3 0 1 -84 -2
-187z m361 -105 c-30 -54 -49 -72 -123 -123 -85 -58 -90 -64 -160 -180 -40
-66 -72 -125 -73 -132 0 -6 9 -14 19 -18 38 -12 46 -32 25 -70 -10 -19 -19
-35 -20 -35 -3 0 -148 82 -153 86 -2 2 41 79 95 172 l99 169 155 97 c85 53
158 96 163 96 4 0 -8 -28 -27 -62z m-6102 -93 l84 -130 -20 -35 c-11 -19 -61
-92 -111 -162 l-90 -128 -61 0 -61 0 -130 206 c-71 113 -131 212 -133 219 -2
8 6 34 17 59 22 51 4 45 241 82 80 12 153 22 163 21 10 -1 50 -53 101 -132z
m85 -542 c12 -87 24 -159 26 -162 2 -2 63 47 134 108 72 61 134 111 139 111 4
0 21 -14 37 -30 25 -26 27 -32 15 -43 -18 -16 -200 -171 -283 -241 -57 -48
-58 -49 -78 -30 -53 48 -61 71 -85 247 -13 95 -24 175 -24 179 0 7 30 15 71
17 l26 1 22 -157z m5046 -19 l28 -37 -23 -17 -22 -17 122 -138 122 -137 -28
-29 c-15 -16 -33 -29 -40 -29 -10 0 -140 140 -221 239 -11 14 -24 23 -28 20
-6 -7 49 -245 79 -344 15 -47 14 -50 -5 -71 -51 -55 -48 -55 -299 51 l-230 98
22 25 c44 46 46 46 224 -28 92 -39 170 -68 173 -64 3 3 -14 82 -38 175 -23 93
-41 176 -38 183 5 12 162 156 171 156 2 0 16 -16 31 -36z m-4454 -205 c65 -56
119 -103 119 -105 0 -16 -115 -352 -124 -361 -6 -7 -33 -19 -59 -27 l-48 -14
-196 166 -195 167 5 54 c3 29 8 55 10 57 9 10 343 164 355 164 7 0 67 -46 133
-101z m493 -329 c111 -65 222 -128 247 -138 l44 -19 23 -179 c13 -98 25 -180
27 -182 5 -5 172 147 234 212 19 20 42 36 50 36 30 -1 216 -67 215 -76 -1 -5
-5 -20 -9 -34 l-7 -25 29 27 29 28 219 -26 c121 -14 228 -29 239 -33 15 -6
-18 -41 -194 -205 l-212 -198 -51 7 c-29 3 -54 9 -57 12 -3 3 28 36 69 73 40
38 70 73 67 78 -3 5 -35 12 -72 15 -37 4 -70 9 -73 13 -3 3 12 22 34 43 l40
37 93 -10 92 -10 35 34 c25 24 31 36 23 41 -7 3 -82 14 -167 24 -101 11 -160
22 -169 32 -30 30 -44 9 -101 -154 -31 -89 -59 -164 -63 -168 -7 -7 -88 15
-88 24 0 4 25 77 55 163 55 155 61 178 49 178 -4 0 -73 -62 -153 -138 l-146
-138 -48 15 c-33 10 -49 21 -52 35 -2 12 -16 120 -30 241 -14 120 -27 221 -29
222 -2 2 -124 -40 -273 -92 l-270 -96 -47 28 c-25 15 -46 30 -46 33 0 3 93 39
206 80 114 41 206 79 206 84 0 6 -64 48 -142 95 l-143 86 49 22 c27 12 53 22
57 22 5 1 100 -53 211 -119z m3273 -160 c54 -88 101 -160 104 -160 3 0 16 33
28 73 49 158 44 150 96 180 47 28 48 28 41 5 -3 -13 -18 -77 -32 -143 -14 -66
-27 -125 -29 -131 -1 -5 -49 -38 -106 -73 -75 -46 -109 -62 -128 -58 -61 11
-281 73 -281 79 0 4 21 19 46 34 l46 27 111 -26 c62 -14 114 -24 116 -22 2 2
-40 74 -93 160 -53 87 -96 161 -96 166 0 9 58 49 72 49 3 0 51 -72 105 -160z
m-393 -37 c3 -10 30 -104 60 -209 31 -106 56 -196 56 -202 0 -11 -75 -32 -114
-32 -29 0 -115 44 -373 192 -106 61 -190 114 -188 118 3 5 27 13 54 20 l48 11
219 -115 c120 -64 222 -116 227 -116 4 0 6 8 3 18 -29 92 -86 292 -86 301 0
28 86 41 94 14z m-624 -208 c0 -41 -2 -45 -25 -45 -30 0 -30 -7 -11 -215 7
-77 11 -143 7 -146 -10 -10 -80 -18 -86 -10 -3 6 -35 316 -35 346 0 3 -4 5 -9
5 -5 0 -38 -73 -75 -162 -93 -229 -82 -212 -143 -216 l-51 -3 -127 212 c-136
226 -137 229 -65 229 34 0 36 -2 130 -155 52 -85 99 -154 104 -152 5 2 38 75
74 163 35 87 67 163 72 167 8 9 117 24 193 26 l47 1 0 -45z m280 -188 l155
-12 3 -42 3 -43 -58 0 c-97 1 -316 19 -323 27 -4 5 -5 25 -3 46 6 43 -13 41
223 24z"/>
<path d="M3335 8326 l-60 -23 -8 -98 c-4 -53 -6 -99 -4 -101 7 -8 268 92 268
102 -2 12 -120 144 -129 143 -4 0 -34 -10 -67 -23z"/>
<path d="M4405 7984 c-16 -2 -73 -9 -125 -15 -343 -38 -774 -171 -1090 -335
-155 -81 -375 -227 -500 -332 -554 -465 -953 -1174 -1061 -1885 -26 -172 -36
-482 -20 -653 32 -347 122 -702 258 -1014 266 -612 732 -1102 1353 -1424 494
-256 924 -358 1444 -343 458 13 878 119 1302 327 451 222 815 540 1103 965
542 799 677 1673 401 2593 -143 476 -389 893 -724 1228 -459 458 -1083 774
-1718 870 -98 15 -551 28 -623 18z m375 -194 c326 -28 612 -100 918 -231 64
-27 120 -53 124 -57 10 -10 -91 -182 -107 -182 -7 0 -44 14 -82 31 -82 37
-324 119 -351 119 -16 0 -24 -16 -42 -85 -13 -47 -26 -88 -30 -90 -4 -3 -47 4
-96 15 -176 38 -324 53 -509 54 -192 0 -302 -11 -485 -50 -63 -13 -117 -20
-121 -16 -4 4 -17 43 -29 87 -12 44 -25 83 -29 87 -8 9 -270 -78 -365 -121
-38 -17 -74 -31 -81 -31 -12 0 -105 158 -105 178 0 18 310 142 481 191 191 55
324 79 599 104 77 8 201 6 310 -3z m-1685 -581 c31 -50 55 -92 53 -93 -94 -67
-221 -169 -285 -230 l-83 -78 66 -74 66 -74 -72 -77 c-207 -225 -387 -530
-484 -823 -27 -81 -51 -136 -60 -138 -7 -2 -49 6 -92 17 -43 11 -82 17 -86 13
-14 -14 -57 -220 -68 -326 -18 -162 -5 -146 -121 -146 -83 0 -101 3 -106 16
-9 23 13 203 43 348 119 594 453 1164 909 1556 80 68 251 200 260 200 2 0 29
-41 60 -91z m3189 12 c550 -410 895 -932 1042 -1576 30 -131 64 -351 64 -417
l0 -48 -103 0 -104 0 -17 124 c-19 135 -61 336 -73 347 -5 4 -49 -3 -100 -15
l-92 -23 -26 86 c-102 327 -263 608 -508 884 l-70 78 69 71 69 70 -84 79 c-63
60 -212 180 -289 235 -6 4 100 184 108 184 4 0 56 -36 114 -79z m-2247 -771
c224 -581 203 -533 227 -525 249 79 429 83 640 15 50 -16 91 -28 93 -27 1 2
77 183 168 402 91 219 170 405 174 413 10 18 183 -70 321 -163 127 -86 133
-92 127 -108 -3 -8 -125 -161 -270 -340 -146 -179 -268 -330 -272 -336 -4 -7
31 -51 82 -105 138 -146 217 -297 257 -486 8 -39 17 -74 19 -76 3 -3 193 20
422 50 229 31 427 56 440 56 17 0 24 -7 29 -31 14 -72 2 -476 -15 -493 -3 -3
-202 26 -443 65 -242 38 -440 68 -441 67 -1 -2 -11 -43 -23 -93 -42 -174 -133
-330 -273 -467 l-89 -86 54 -69 c414 -536 486 -636 475 -649 -43 -52 -399
-249 -436 -242 -13 2 -59 109 -175 408 -86 223 -158 408 -160 412 -2 4 -41 -4
-87 -18 -194 -56 -378 -54 -570 8 -51 16 -97 26 -101 21 -4 -4 -81 -189 -171
-410 -94 -232 -169 -403 -177 -403 -25 0 -211 100 -314 169 -118 79 -135 95
-121 114 6 6 130 161 277 344 146 182 266 334 266 336 0 3 -35 40 -78 83 -90
90 -150 175 -198 278 -32 71 -74 211 -74 250 0 46 -12 50 -102 38 -611 -82
-791 -103 -798 -92 -15 24 -20 223 -10 356 7 76 14 142 16 146 8 13 29 10 456
-57 226 -36 417 -65 423 -65 7 0 18 27 25 63 38 197 134 365 294 514 l76 71
-18 23 c-10 13 -132 171 -271 352 -139 180 -249 332 -245 338 24 40 409 253
443 247 9 -2 60 -122 128 -298z m-2003 -1692 c3 -18 10 -73 16 -123 11 -91 56
-314 64 -322 2 -3 45 7 95 20 50 14 93 21 96 17 3 -5 15 -39 26 -77 99 -319
269 -615 512 -886 l70 -78 -69 -70 -69 -71 85 -80 c47 -44 130 -114 185 -156
55 -41 99 -80 97 -86 -6 -20 -97 -176 -102 -176 -12 0 -246 182 -341 265 -420
369 -709 870 -823 1427 -27 130 -56 336 -56 394 l0 34 105 0 104 0 5 -32z
m5356 -9 c0 -117 -60 -416 -122 -609 -185 -574 -580 -1115 -1051 -1439 l-45
-30 -51 83 c-28 46 -51 88 -51 94 0 7 36 38 81 71 102 75 279 230 279 244 0 6
-30 42 -66 78 l-67 67 74 84 c227 255 382 522 491 841 23 67 42 123 42 124 1
1 44 -9 96 -22 52 -14 96 -25 97 -25 9 -1 66 301 78 418 l7 62 104 0 104 0 0
-41z m-3288 -2089 c156 -36 315 -53 503 -54 191 0 300 11 484 50 63 13 117 22
119 19 2 -2 15 -41 28 -86 13 -46 27 -86 32 -90 9 -10 237 65 355 115 48 21
93 36 100 33 12 -5 97 -156 97 -174 0 -13 -246 -116 -388 -162 -159 -52 -356
-96 -522 -117 -165 -20 -538 -15 -693 10 -214 35 -430 96 -640 182 -92 38
-184 80 -195 89 -3 3 68 130 96 173 7 10 27 4 88 -24 90 -41 333 -124 363
-124 11 0 22 8 25 18 37 130 48 162 56 162 4 0 46 -9 92 -20z"/>
<path d="M1573 3206 c-73 -11 -133 -24 -133 -28 0 -16 208 -333 218 -333 10 0
97 112 147 188 17 27 17 28 -29 101 -25 40 -51 78 -58 83 -8 6 -62 2 -145 -11z"/>
<path d="M2258 2363 c-65 -31 -118 -61 -117 -67 1 -12 300 -268 306 -262 12
11 90 254 85 262 -14 19 -139 124 -148 124 -5 -1 -62 -26 -126 -57z"/>
</g>
</svg>
